<?xml version="1.0" encoding="UTF-8"?>
<svg version="1.1" xmlns="http://www.w3.org/2000/svg" width="138" height="79">
<path d="M0 0 C0.93236984 -0.01007584 1.86473969 -0.02015167 2.82536316 -0.03053284 C5.90420567 -0.05900183 8.98255753 -0.06488931 12.06152344 -0.06811523 C14.2075826 -0.07775856 16.35363979 -0.08785121 18.49969482 -0.09837341 C22.9987037 -0.11633322 27.49753983 -0.12189473 31.99658203 -0.12011719 C37.74787681 -0.1198127 43.4980573 -0.16073335 49.24908829 -0.21243382 C53.68279048 -0.24587571 58.11622582 -0.25187231 62.5500412 -0.25028801 C64.6694497 -0.25381743 66.7888659 -0.267027 68.90814972 -0.29028511 C71.88095354 -0.31985067 74.85137232 -0.3109918 77.82421875 -0.29296875 C78.69102768 -0.30982727 79.55783661 -0.32668579 80.45091248 -0.34405518 C87.1293545 -0.24173448 91.68024845 2.00317941 96.67089844 6.43579102 C100.56226084 11.71232941 101.27896968 16.82350656 101.23730469 23.24829102 C101.24350327 24.06144775 101.24970184 24.87460449 101.25608826 25.71240234 C101.26314585 27.41999117 101.26008394 29.12764941 101.24731445 30.83520508 C101.2334298 33.42993051 101.26759746 36.02105558 101.30566406 38.61547852 C101.30661533 40.28475022 101.304756 41.95402638 101.29980469 43.62329102 C101.3130629 44.38810791 101.32632111 45.1529248 101.33998108 45.94091797 C101.23950221 51.82835796 99.39310018 55.87853755 95.67089844 60.43579102 C90.17169114 64.81271111 86.21792842 65.56166959 79.33105469 65.56860352 C77.48930664 65.57053711 77.48930664 65.57053711 75.61035156 65.57250977 C74.33095703 65.56864258 73.0515625 65.56477539 71.73339844 65.56079102 C70.45787109 65.5646582 69.18234375 65.56852539 67.86816406 65.57250977 C66.63904297 65.5712207 65.40992187 65.56993164 64.14355469 65.56860352 C63.02215088 65.56747559 61.90074707 65.56634766 60.74536133 65.56518555 C57.93581939 65.44694071 55.40298644 65.07687516 52.67089844 64.43579102 C52.44402344 64.99266602 52.21714844 65.54954102 51.98339844 66.12329102 C48.34001619 72.54258354 41.59398819 77.12809443 34.67089844 79.43579102 C26.34170905 80.22476699 19.1698799 80.59387795 12.34667969 75.15844727 C9.14524902 71.86746608 7.67089844 69.01318812 7.67089844 64.43579102 C7.13045898 64.59587646 6.59001953 64.75596191 6.03320312 64.92089844 C1.09411077 65.99743273 -4.04449322 65.70670559 -9.07910156 65.74829102 C-10.81160156 65.79179687 -10.81160156 65.79179687 -12.57910156 65.83618164 C-19.67327218 65.88882103 -24.32339574 65.30063935 -30.32910156 61.43579102 C-35.1330116 56.37904361 -36.6191641 52.51640552 -36.64160156 45.56079102 C-36.65835938 44.36711914 -36.67511719 43.17344727 -36.69238281 41.94360352 C-36.01298059 35.38335415 -33.05107181 31.64163413 -28.11425781 27.62719727 C-25.90262619 26.15116303 -23.97758346 25.59630507 -21.32910156 25.43579102 C-21.65910156 24.77579102 -21.98910156 24.11579102 -22.32910156 23.43579102 C-22.81342372 16.29203916 -21.79463346 11.29061743 -16.95410156 5.68579102 C-11.21128012 0.76337264 -7.37573694 -0.01146151 0 0 Z M-5.32910156 17.43579102 C-5.70903038 20.77797734 -5.56446327 22.10533897 -3.57910156 24.89282227 C-2.83660156 25.67012695 -2.09410156 26.44743164 -1.32910156 27.24829102 C-0.58660156 28.03848633 0.15589844 28.82868164 0.92089844 29.64282227 C1.49839844 30.23450195 2.07589844 30.82618164 2.67089844 31.43579102 C1.3216038 35.27242174 -0.40661182 38.0875167 -2.95410156 41.24829102 C-3.58574219 42.03848633 -4.21738281 42.82868164 -4.86816406 43.64282227 C-5.35027344 44.23450195 -5.83238281 44.82618164 -6.32910156 45.43579102 C-5.66910156 46.75579102 -5.00910156 48.07579102 -4.32910156 49.43579102 C-1.0839049 49.13172659 0.28990396 48.87298424 2.47167969 46.36938477 C3.21998047 45.13381836 3.21998047 45.13381836 3.98339844 43.87329102 C4.49515625 43.04700195 5.00691406 42.22071289 5.53417969 41.36938477 C5.90929688 40.73129883 6.28441406 40.09321289 6.67089844 39.43579102 C10.17790743 40.60479401 10.56996372 41.44518712 12.54589844 44.43579102 C14.87909266 47.76757287 14.87909266 47.76757287 18.54589844 49.43579102 C19.24714844 49.43579102 19.94839844 49.43579102 20.67089844 49.43579102 C21.58250519 47.22707393 21.58250519 47.22707393 21.67089844 44.43579102 C19.82757615 41.42868342 19.82757615 41.42868342 17.23339844 38.62329102 C16.3890625 37.6474707 15.54472656 36.67165039 14.67480469 35.66625977 C14.01351562 34.93020508 13.35222656 34.19415039 12.67089844 33.43579102 C14.56968355 30.17991624 16.57297364 27.11973687 18.85839844 24.12329102 C19.65310547 23.0772168 19.65310547 23.0772168 20.46386719 22.01000977 C20.8621875 21.49051758 21.26050781 20.97102539 21.67089844 20.43579102 C21.01089844 19.11579102 20.35089844 17.79579102 19.67089844 16.43579102 C16.80049623 16.78984944 15.80243609 17.29148811 13.81933594 19.46704102 C13.23410156 20.28172852 12.64886719 21.09641602 12.04589844 21.93579102 C8.84955849 26.34646099 8.84955849 26.34646099 6.67089844 27.43579102 C6.42339844 26.89954102 6.17589844 26.36329102 5.92089844 25.81079102 C3.22550081 20.19566869 3.22550081 20.19566869 -1.45410156 16.49829102 C-3.42190895 16.28354344 -3.42190895 16.28354344 -5.32910156 17.43579102 Z M26.67089844 16.43579102 C26.01089844 17.09579102 25.35089844 17.75579102 24.67089844 18.43579102 C25.04727334 22.22495446 26.40641684 25.3285023 28.02636719 28.74438477 C28.48333984 29.73889648 28.9403125 30.7334082 29.41113281 31.75805664 C30.37657809 33.83617435 31.35318272 35.90914375 32.34082031 37.97680664 C35.81472431 45.61148897 35.81472431 45.61148897 35.04589844 50.01782227 C34.59214844 50.81575195 34.13839844 51.61368164 33.67089844 52.43579102 C33.27902344 53.17829102 32.88714844 53.92079102 32.48339844 54.68579102 C29.88480513 57.19477766 27.13454488 57.65156918 23.67089844 58.43579102 C24.00089844 60.08579102 24.33089844 61.73579102 24.67089844 63.43579102 C29.05615313 63.97276098 31.25552904 63.67746049 35.10839844 61.43579102 C40.70570604 56.06287436 43.52699155 48.39314051 46.67089844 41.43579102 C47.29641602 40.08541748 47.29641602 40.08541748 47.93457031 38.70776367 C49.24237003 35.87597892 50.52337116 33.03358193 51.79589844 30.18579102 C52.21081543 29.28078857 52.62573242 28.37578613 53.05322266 27.44335938 C53.61033936 26.16344116 53.61033936 26.16344116 54.17871094 24.85766602 C54.51531738 24.10066406 54.85192383 23.34366211 55.19873047 22.5637207 C55.8017907 19.84589602 55.13125663 18.73818692 53.67089844 16.43579102 C51.73906928 16.59927504 51.73906928 16.59927504 49.67089844 17.43579102 C48.22935713 19.39055838 48.22935713 19.39055838 47.17089844 21.87329102 C46.75324219 22.76790039 46.33558594 23.66250977 45.90527344 24.58422852 C44.34310346 28.19303891 42.86671936 31.82709753 41.46777344 35.50219727 C40.67089844 37.43579102 40.67089844 37.43579102 39.67089844 38.43579102 C39.43902832 37.84040527 39.2071582 37.24501953 38.96826172 36.6315918 C37.91621593 33.93917475 36.85616552 31.24998054 35.79589844 28.56079102 C35.24869141 27.15506836 35.24869141 27.15506836 34.69042969 25.72094727 C34.3359375 24.82504883 33.98144531 23.92915039 33.61621094 23.00610352 C33.29152832 22.17868652 32.9668457 21.35126953 32.63232422 20.4987793 C31.74000115 18.27674025 31.74000115 18.27674025 29.67089844 16.43579102 C28.68089844 16.43579102 27.69089844 16.43579102 26.67089844 16.43579102 Z M60.67089844 17.43579102 C60.0801983 19.38182376 60.0801983 19.38182376 59.67089844 21.43579102 C61.61180669 23.37669927 65.14383746 22.83498537 67.73339844 22.99829102 C69.66892578 23.12397461 69.66892578 23.12397461 71.64355469 23.25219727 C73.14208984 23.34307617 73.14208984 23.34307617 74.67089844 23.43579102 C74.05045654 24.2598645 74.05045654 24.2598645 73.41748047 25.10058594 C71.53783807 27.60387267 69.66681655 30.11347817 67.79589844 32.62329102 C67.14492187 33.48760742 66.49394531 34.35192383 65.82324219 35.24243164 C64.88544922 36.50410156 64.88544922 36.50410156 63.92871094 37.79125977 C63.35266113 38.56107178 62.77661133 39.33088379 62.18310547 40.12402344 C60.63598613 42.48916277 59.62699094 44.78294208 58.67089844 47.43579102 C60.46799408 49.65450094 60.46799408 49.65450094 62.91748047 49.6628418 C64.28428955 49.64713135 64.28428955 49.64713135 65.67871094 49.63110352 C67.15791016 49.62143555 67.15791016 49.62143555 68.66699219 49.61157227 C69.69953125 49.59481445 70.73207031 49.57805664 71.79589844 49.56079102 C72.83617188 49.55176758 73.87644531 49.54274414 74.94824219 49.53344727 C77.52268936 49.50982848 80.09668056 49.4768925 82.67089844 49.43579102 C83.33089844 48.11579102 83.99089844 46.79579102 84.67089844 45.43579102 C81.81296528 42.57785786 79.5242426 43.02779161 75.54589844 42.81079102 C74.26457031 42.73602539 72.98324219 42.66125977 71.66308594 42.58422852 C70.67566406 42.53524414 69.68824219 42.48625977 68.67089844 42.43579102 C69.08452637 41.88117187 69.4981543 41.32655273 69.92431641 40.75512695 C71.80141452 38.23440716 73.67369662 35.71014923 75.54589844 33.18579102 C76.196875 32.3130957 76.84785156 31.44040039 77.51855469 30.54125977 C78.14375 29.69692383 78.76894531 28.85258789 79.41308594 27.98266602 C80.27716064 26.82009277 80.27716064 26.82009277 81.15869141 25.6340332 C82.54181786 23.62343092 83.64513076 21.64581408 84.67089844 19.43579102 C82.8738028 17.21708109 82.8738028 17.21708109 80.42431641 17.20874023 C79.05750732 17.22445068 79.05750732 17.22445068 77.66308594 17.24047852 C76.67695312 17.24692383 75.69082031 17.25336914 74.67480469 17.26000977 C73.64226562 17.27676758 72.60972656 17.29352539 71.54589844 17.31079102 C70.505625 17.31981445 69.46535156 17.32883789 68.39355469 17.33813477 C65.81910751 17.36175355 63.24511632 17.39468953 60.67089844 17.43579102 Z M-20.32910156 43.43579102 C-20.03926888 46.74262567 -20.03926888 46.74262567 -18.32910156 49.43579102 C-16.66293041 49.47642934 -14.99522061 49.47851202 -13.32910156 49.43579102 C-12.13071947 47.10724638 -12.13071947 47.10724638 -11.32910156 44.43579102 C-11.98910156 43.44579102 -12.64910156 42.45579102 -13.32910156 41.43579102 C-16.7870594 41.00354629 -17.80885766 40.91554711 -20.32910156 43.43579102 Z " fill="#FFFFFF" transform="translate(37.3291015625,-0.435791015625)"/>
</svg>
